<?xml version="1.0" encoding="UTF-8"?>
<svg width="30px" height="30px" viewBox="0 0 30 30" version="1.1" xmlns="http://www.w3.org/2000/svg" xmlns:xlink="http://www.w3.org/1999/xlink">
    <title>symbol-copy-2</title>
    <g id="Page-1" stroke="none" stroke-width="1" fill="none" fill-rule="evenodd">
        <g id="logo" fill-rule="nonzero">
            <g id="symbol-copy-2" transform="translate(0, 0)">
                <path d="M29.5793151,10.1664049 C29.4628886,9.99692213 29.2691772,9.90998229 29.0738683,9.90998229 L17.9522395,9.90998229 L23.498176,1.04531664 C23.6409633,0.817674169 23.6489514,0.506089786 23.4756097,0.256262666 C23.3579849,0.0865800865 23.1622765,3.99723392e-05 22.9661687,3.99723392e-05 L13.3890387,3.99723392e-05 C12.4274714,3.99723392e-05 11.5290101,0.515683147 10.9904126,1.37648747 L0.106230039,18.7748478 C-0.0361578036,19.0026902 -0.0421488769,19.3142745 0.129395522,19.5641017 C0.245622344,19.7333845 0.439333714,19.8201245 0.634842406,19.8201245 L11.7508795,19.8201245 L6.20434385,28.6869886 C6.10449263,28.846878 6.07393815,29.0481387 6.11947031,29.2400059 C6.18956587,29.5372003 6.45277369,29.7322653 6.73655086,29.7322653 L16.3080893,29.7322653 C17.2768458,29.7322653 18.182097,29.2126249 18.7244888,28.345425 L24.0563444,19.8201245 L24.0565441,19.8201245 L29.6020812,10.9554589 C29.7446688,10.7278164 29.7506598,10.4158323 29.5793151,10.1664049" id="Fill-1" fill="#4E48E0"></path>
                <path d="M24.0576142,19.8181459 L18.7245604,28.3452451 C18.1821686,29.2126449 17.2767177,29.7320854 16.3081608,29.7320854 L6.73662243,29.7320854 C6.45284526,29.7320854 6.18963744,29.5372203 6.11954188,29.2400259 C6.07400973,29.0481587 6.1045642,28.846898 6.20441542,28.6870086 L11.7519496,19.8181459 L24.0576142,19.8181459 Z" id="Fill-3" fill="#4E48E0"></path>
                <path d="M17.9450419,9.9099623 L29.0738599,9.9099623 C29.2691689,9.9099623 29.4628803,9.99690214 29.5793068,10.166185 C29.7508512,10.4158123 29.7444608,10.7275965 29.6022726,10.9554389 L24.0567355,19.8201045 L11.746278,19.8201045 L17.9450419,9.9099623 Z" id="Fill-5" fill="#1C81C1"></path>
                <path d="M0.634794157,19.8200845 C0.439485167,19.8200845 0.245773797,19.7333446 0.129546975,19.5640617 C-0.0421971264,19.3142346 -0.0362060531,19.0026502 0.106381492,18.7750077 L10.9905641,1.3764475 C11.5289618,0.515643175 12.4276228,3.8922858e-16 13.3889904,3.8922858e-16 L22.9661205,3.8922858e-16 C23.1622283,3.8922858e-16 23.3581364,0.0867399759 23.4757611,0.256222694 C23.6489031,0.506049813 23.640915,0.817634197 23.4983275,1.04547653 L11.7520295,19.8200845 L0.634794157,19.8200845 Z" id="Fill-7" fill="#5CC4CD"></path>
            </g>
        </g>
    </g>
</svg>